<svg width="15" height="23" viewBox="0 0 15 23" fill="none" xmlns="http://www.w3.org/2000/svg">
<path d="M14.3136 7.99686C14.5926 7.99686 14.8189 8.2234 14.8189 8.50284V14.7476C14.8189 14.8815 14.7656 15.0103 14.6707 15.1053L7.21195 22.5751C7.11706 22.6701 6.9885 22.7235 6.85435 22.7235H0.618388C0.339341 22.7235 0.113118 22.4969 0.113118 22.2174V15.9726C0.113122 15.8383 0.166409 15.7096 0.261289 15.6146L7.86822 7.99686H14.3136Z" fill="white"/>
<path d="M7.36291 0.226562C7.64195 0.226562 7.86821 0.453107 7.86822 0.732548V7.9964H0.614645C0.335599 7.99639 0.109375 7.76981 0.109375 7.49037V0.732548C0.109386 0.453114 0.335606 0.226573 0.614645 0.226562H7.36291Z" fill="white"/>
</svg>
