<svg width="128" height="48" viewBox="0 0 128 48" fill="none" xmlns="http://www.w3.org/2000/svg">
<path d="M28.2786 19.0347C28.677 19.0347 29 19.3581 29 19.757V28.6724C29 28.8635 28.9239 29.0473 28.7885 29.183L18.14 39.8472C18.0045 39.9829 17.821 40.0591 17.6295 40.0591H8.72669C8.32831 40.059 8.00534 39.7356 8.00534 39.3366V30.4212C8.00535 30.2295 8.08142 30.0457 8.21688 29.9101L19.0769 19.0347H28.2786Z" fill="white"/>
<path d="M18.3555 7.94141C18.7539 7.94141 19.0769 8.26483 19.0769 8.66378V19.034H8.72135C8.32297 19.034 8 18.7105 8 18.3116V8.66378C8.00002 8.26484 8.32298 7.94142 8.72135 7.94141H18.3555Z" fill="white"/>
<path d="M44.484 22.3293V11.3492H47.5897V22.3293H44.484Z" fill="white"/>
<path d="M49.8086 16.9969V16.6529C49.8086 14.7353 50.4903 13.3241 51.8536 12.4195C53.217 11.5148 54.9658 11.0625 57.1 11.0625C59.2278 11.0625 60.9798 11.5148 62.3559 12.4195C63.7384 13.3241 64.4296 14.7353 64.4296 16.6529V16.9969C64.4296 18.9336 63.7384 20.3543 62.3559 21.259C60.9798 22.1637 59.2278 22.616 57.1 22.616C54.9721 22.616 53.2233 22.1637 51.8536 21.259C50.4903 20.3543 49.8086 18.9336 49.8086 16.9969ZM52.9526 17.2454C52.9526 18.3858 53.3285 19.1821 54.0802 19.6344C54.8383 20.0868 55.8449 20.3129 57.1 20.3129C58.3614 20.3129 59.3712 20.0868 60.1293 19.6344C60.8938 19.1821 61.2761 18.3858 61.2761 17.2454V16.4235C61.2761 15.2832 60.8938 14.4932 60.1293 14.0536C59.3712 13.6076 58.3614 13.3847 57.1 13.3847C55.8449 13.3783 54.8383 13.5981 54.0802 14.044C53.3285 14.49 52.9526 15.2832 52.9526 16.4235V17.2454Z" fill="white"/>
<path d="M65.0239 13.7V11.3492H77.963V13.7H73.032V22.3293H69.9645V13.7H65.0239Z" fill="white"/>
<path d="M76.8754 22.3293L82.8672 11.311H85.8487L91.8692 22.3293H88.5436L84.7689 15.1048C84.6542 14.8563 84.5523 14.611 84.4631 14.369C84.3803 14.1269 84.2974 13.9103 84.2146 13.7191H84.1286C84.0458 13.9103 83.9598 14.13 83.8706 14.3785C83.7878 14.6206 83.6922 14.8627 83.5839 15.1048L79.7805 22.3293H76.8754ZM79.6659 20.2938L80.6215 18.0672H87.9224L88.8876 20.2938H79.6659Z" fill="white"/>
<path d="M44.4648 37.7802V26.8001H47.5419L53.7248 33.241C53.8905 33.4385 54.0561 33.6774 54.2218 33.9577C54.3874 34.2317 54.5084 34.4419 54.5849 34.5884H54.7091C54.6709 34.4228 54.639 34.2508 54.6136 34.0724C54.5881 33.8876 54.5753 33.7093 54.5753 33.5372V26.8001H57.2224V37.7802H54.0784L48.0102 31.6356C47.7936 31.368 47.6025 31.0749 47.4368 30.7564C47.2712 30.4378 47.1565 30.2085 47.0928 30.0683H46.959C46.9909 30.2276 47.0195 30.4124 47.045 30.6226C47.0769 30.8265 47.0928 31.008 47.0928 31.1673V37.7802H44.4648Z" fill="white"/>
<path d="M58.2563 37.7802L64.248 26.7619H67.2296L73.25 37.7802H69.9244L66.1497 30.5557C66.0351 30.3072 65.9331 30.062 65.8439 29.8199C65.7611 29.5778 65.6783 29.3612 65.5955 29.17H65.5095C65.4266 29.3612 65.3406 29.581 65.2514 29.8294C65.1686 30.0715 65.0731 30.3136 64.9648 30.5557L61.1614 37.7802H58.2563ZM61.0467 35.7447L62.0023 33.5181H69.3033L70.2685 35.7447H61.0467Z" fill="white"/>
<path d="M74.3412 37.7802V26.8001H77.9153L82.2633 34.1202C82.3589 34.2794 82.4608 34.4546 82.5691 34.6458C82.6774 34.8305 82.7571 34.9834 82.808 35.1045H82.8654C82.9227 34.9834 82.9992 34.8305 83.0947 34.6458C83.1903 34.4546 83.2827 34.2794 83.3719 34.1202L87.7964 26.8001H91.4564V37.7802H88.4271V31.1195C88.4271 30.9602 88.4399 30.7882 88.4653 30.6035C88.4908 30.4187 88.5099 30.2467 88.5227 30.0874H88.4176C88.3793 30.2467 88.3284 30.4187 88.2647 30.6035C88.2009 30.7882 88.1245 30.9602 88.0353 31.1195L83.9452 37.7802H81.3555L77.2941 31.1291C77.2049 30.9634 77.1253 30.7914 77.0552 30.613C76.9915 30.4283 76.9373 30.2531 76.8927 30.0874H76.7876C76.8067 30.2531 76.829 30.4283 76.8545 30.613C76.88 30.7978 76.8927 30.9698 76.8927 31.1291V37.7802H74.3412Z" fill="white"/>
<path d="M94.2582 37.7802V26.8001H105.076V29.1414H97.2875V31.0048H104.101V33.2697H97.2875V35.458H105.181V37.7802H94.2582Z" fill="white"/>
<path d="M106.291 34.4833L106.282 34.2062H109.368L109.378 34.426C109.391 34.8974 109.677 35.2446 110.238 35.4676C110.799 35.6842 111.608 35.7925 112.665 35.7925C113.723 35.7925 114.529 35.7033 115.083 35.5249C115.637 35.3402 115.914 35.0854 115.914 34.7604C115.914 34.4419 115.676 34.1966 115.198 34.0246C114.72 33.8462 113.589 33.6201 111.805 33.3461C109.99 33.0722 108.658 32.6708 107.811 32.142C106.97 31.6133 106.549 30.8647 106.549 29.8963C106.549 28.8706 107.072 28.0615 108.117 27.469C109.168 26.8765 110.639 26.5803 112.532 26.5803C114.385 26.5803 115.857 26.9148 116.947 27.5837C118.036 28.2463 118.587 29.0681 118.6 30.0492L118.609 30.2881H115.58V30.1066C115.567 29.6925 115.312 29.3739 114.815 29.1509C114.325 28.9216 113.567 28.8069 112.541 28.8069C111.541 28.8069 110.799 28.8834 110.314 29.0363C109.83 29.1892 109.588 29.4281 109.588 29.753C109.588 30.0014 109.837 30.2117 110.334 30.3837C110.831 30.5493 111.933 30.7659 113.64 31.0335C115.443 31.3393 116.778 31.7279 117.644 32.1994C118.511 32.6644 118.944 33.4321 118.944 34.5024C118.944 35.6237 118.38 36.4869 117.252 37.0922C116.125 37.6974 114.602 38 112.684 38C110.773 38 109.231 37.7038 108.059 37.1113C106.893 36.5188 106.304 35.6428 106.291 34.4833Z" fill="white"/>
</svg>
